<svg xmlns="http://www.w3.org/2000/svg" width="37" height="37" viewBox="0 0 37 37"><g><g><path fill="#fff" d="M.11 0c1.975.009 3.95.02 5.924.03.594 1.245 1.187 2.492 1.78 3.738h22.032l5.837.03c.53.176 1.062.58 1.225 1.127.437 1.464-1.058 3.218-1.575 4.096l-4.115 7.182c-1.019 1.74-1.52 3.417-3.881 3.828H14.118c-.261 0-.813-.076-.963.06-.333.325-2.036 3.053-2.043 3.56l.204.297c1.47.275 3.773.06 5.399.06h10.797l5.223.03v3.471l-.058.06H16.54c-2.279 0-5.805.343-7.442-.386-1.263-.563-2.455-2.368-1.809-4.422.234-.744.736-1.342 1.11-1.958l2.013-3.354L5.48 7.36c-.295-.587-1.433-3.4-1.78-3.62l-3.648-.06C.046 2.927-.108.492.111 0zm10.535 29.498c4.834-.066 5.09 6.696.7 7.448-2.604.447-4.84-2.207-4.056-4.807.345-1.143 1.225-2.004 2.276-2.434.317-.129.724-.07 1.08-.207zm18.122 0c4.943-.079 5.202 6.69.788 7.448-2.763.475-4.923-2.407-3.97-5.044.395-1.091 1.32-1.916 2.423-2.285l.759-.12z"/></g></g></svg>