<svg xmlns="http://www.w3.org/2000/svg" width="21" height="14" viewBox="0 0 21 14"><g><g><path fill="#47bce3" d="M1.996.078C1.607.166 1.181.315.94.558l7.227 4.668 1.529.987c.22.143.516.381.945.3.515-.096.877-.432 1.25-.684l1.57-1.013c2.197-1.41 4.393-2.821 6.588-4.232V.557c-.733-.771-3.227-.52-4.753-.52H2.426l-.43.04zM-.005 2.994v8.723c.175-.056.284-.25.417-.356l1.362-1.232 4.656-4.19c-.122-.154-.35-.23-.515-.343l-1.403-.904-4.42-2.861c-.126.291-.097.746-.097 1.163zM14.6 5.884a8.75 8.75 0 0 0-.027.055l6.407 5.778c.088-.16.027-.563.027-.78V9.005 3.583l-.083-1.711-.056-.028-6.268 4.04zM.661 13.209c.78 1.03 3 .768 4.81.768H17.77c.454 0 .951.037 1.334-.055.539-.13.85-.422 1.223-.699v-.027l-7.101-6.408c-.948.508-1.967 1.65-3.572 1.108-.532-.179-.99-.52-1.432-.807-.144-.094-.29-.255-.472-.301L.662 13.209z"/></g></g></svg>