<svg xmlns="http://www.w3.org/2000/svg" width="97" height="17" viewBox="0 0 97 17"><defs><clipPath id="38p7a"><path d="M77.148 6.7l-5.686-.872L68.92.403l-2.543 5.425-5.686.871 4.115 4.223-.972 5.963 5.086-2.815 5.085 2.815-.971-5.963z"/></clipPath></defs><g><g><g><path fill="#fe8a61" d="M16.452 6.7l-5.686-.872L8.224.403 5.68 5.828-.005 6.7l4.115 4.223-.972 5.963 5.086-2.815 5.085 2.815-.971-5.963z"/></g><g><path fill="#fe8a61" d="M36.873 6.7l-5.686-.872L28.645.403l-2.543 5.425-5.686.871 4.115 4.223-.972 5.963 5.086-2.815 5.085 2.815-.971-5.963z"/></g><g><path fill="#fe8a61" d="M56.727 6.7l-5.686-.872L48.499.403l-2.543 5.425-5.686.871 4.114 4.223-.97 5.963 5.085-2.815 5.085 2.815-.971-5.963z"/></g><g><path fill="#fe8a61" d="M77.148 6.7l-5.686-.872L68.92.403l-2.543 5.425-5.686.871 4.115 4.223-.972 5.963 5.086-2.815 5.085 2.815-.971-5.963z"/></g><g clip-path="url(#38p7a)"><path fill="#dbdbdb" d="M68.625-3h10.812v25H68.625z"/></g><g><path fill="#dbdbdb" d="M97.002 6.7l-5.686-.872L88.773.403l-2.542 5.425-5.686.871 4.114 4.223-.971 5.963 5.085-2.815 5.086 2.815-.971-5.963z"/></g></g></g></svg>