<svg xmlns="http://www.w3.org/2000/svg" width="17" height="17" viewBox="0 0 17 17"><g><g><path fill="#fff" d="M6.594 0c.831-.01 1.568.08 2.202.285 2.208.706 3.627 2.153 4.418 4.255.27.717.497 1.863.317 2.85-.08.44-.148.857-.277 1.251a6.766 6.766 0 0 1-1.068 1.986L17 15.347v.025l-1.675 1.625h-.027l-4.88-4.772-.79.426c-.625.277-1.299.437-2.085.568-1.157.191-2.349-.124-3.165-.413C1.854 11.909-.61 9.03.131 5.353c.09-.447.23-.896.396-1.29.768-1.818 2.226-3.035 4.141-3.74C5.073.172 5.538.12 6 .038L6.594 0zm.013 1.561c-.11.006-.22.008-.33.013-.425.075-.865.122-1.226.27-1.565.643-2.623 1.625-3.205 3.225-.228.627-.313 1.606-.158 2.36.4 1.949 1.398 3.042 2.993 3.817.431.21 1.556.565 2.269.451.52-.084.987-.084 1.424-.233 1.457-.49 2.656-1.49 3.205-2.862a5.98 5.98 0 0 0 .317-1.044c.224-1.13-.042-2.314-.422-3.083-.83-1.673-2.329-2.92-4.867-2.914z"/></g></g></svg>