<svg xmlns="http://www.w3.org/2000/svg" width="50" height="42" viewBox="0 0 50 42"><g><g><path fill="#888" d="M20.88.372c-1.62.441-3.2.854-4.62 1.5-3.919 1.785-7.368 4.877-9.394 8.563l-1.248 2.531-.656 1.875c0 .143-.005.184.063.25.43.349 1.402.436 1.966.595.308-.264.368-1.009.53-1.407.434-1.061.915-2.124 1.499-3.063 1.778-2.856 4.283-5.3 7.334-6.875 1.34-.69 2.845-1.243 4.432-1.656 2.582-.67 6.397-.616 8.864.156.745.234 1.37.333 2.06.594 4.412 1.666 7.987 4.963 9.956 9.093.808 1.695 1.774 3.75 1.904 6.064l-3.495-2.657h-.125l-1.249 1.75c.507.635 1.408 1.07 2.06 1.562l4.245 3.22c.586-.319 1.046-1.308 1.436-1.845l2.434-3.218c.326-.432.871-.876 1.061-1.406-.232-.304-1.37-1.204-1.747-1.313l-2.373 3.156c-.02.01-.041.02-.062.032l-.53-2.563a29.492 29.492 0 0 0-1.592-4.031C40.513 4.919 33.518-.144 23.813-.002L20.88.372zM.062 25.842c.132.461 1.292.97 1.623 1.375h.125l2.403-3.158a1.4 1.4 0 0 0 .063-.03c1.628 9.314 7.344 14.83 15.792 17.344 2.67.794 6.592.695 9.333.062 5.703-1.315 9.627-4.164 12.578-8.219 1.046-1.438 1.838-2.942 2.559-4.75.189-.475.498-1.017.53-1.625-.552-.242-1.426-.583-2.09-.594-.602 1.22-.841 2.513-1.499 3.626-2.309 3.907-5.513 7.027-10.05 8.686-3.968 1.454-9.186 1.394-13.108-.093-5.856-2.219-11.069-7.835-11.86-15.093l2.652 1.937c.275.205.504.559.905.625l1.28-1.687c-.28-.49-1.02-.82-1.467-1.157l-4.744-3.656H4.9L.062 25.84z"/></g></g></svg>